<svg width="762pt" height="762pt" version="1.1" viewBox="0 0 762 762"
    xmlns="http://www.w3.org/2000/svg">
    <g>
        <path d="m376 0c-49.375 0-98.27 9.7266-143.89 28.621-45.621 18.895-87.07 46.59-121.98 81.508-34.918 34.914-62.613 76.363-81.508 121.98-18.895 45.617-28.621 94.512-28.621 143.89 0 99.723 39.617 195.36 110.13 265.87 70.516 70.516 166.15 110.13 265.87 110.13 99.723 0 195.36-39.617 265.87-110.13 70.512-70.512 110.13-166.15 110.13-265.87 0-99.719-39.613-195.36-110.12-265.87-70.516-70.516-166.15-110.13-265.88-110.13zm0 42.465c43.316 0 86.207 8.625 126.23 25.387 40.02 16.762 76.379 41.332 107.01 72.305s54.926 67.738 71.5 108.21c16.578 40.465 25.105 83.84 25.105 127.64 0 88.461-34.75 173.3-96.605 235.84-61.859 62.551-145.75 97.691-233.23 97.691-43.312 0-86.207-8.625-126.22-25.387-40.02-16.762-76.383-41.332-107.01-72.301-30.629-30.973-54.926-67.742-71.504-108.21-16.574-40.469-25.105-83.84-25.105-127.64s8.5312-87.172 25.105-127.64c16.578-40.469 40.871-77.238 71.5-108.21 30.629-30.969 66.992-55.539 107.01-72.301 40.02-16.762 82.914-25.387 126.23-25.387z"/>
        <path d="m493.98 294.13c-0.96875 0-1.9062 0.015625-2.8477 0.042969-7.7422-30.555-29.027-55.898-57.789-68.801-28.762-12.902-61.84-11.953-89.812 2.5781s-47.77 41.055-53.75 72.004c-24.961-9.4258-52.82-7.2773-76.047 5.8555-23.227 13.137-39.418 35.906-44.207 62.156-4.7891 26.246 2.3281 53.27 19.418 73.758 17.094 20.488 42.402 32.328 69.082 32.324h7.9297c4.0859 0 7.3984-3.3125 7.3984-7.3984 0-4.0859-3.3125-7.3984-7.3984-7.3984h-7.9297c-23.062 0.042969-44.871-10.508-59.152-28.617-14.285-18.109-19.461-41.773-14.047-64.195 5.418-22.418 20.828-41.109 41.801-50.703 20.977-9.5898 45.195-9.0234 65.695 1.5469 2.1914 1.1367 4.8008 1.1094 6.9688-0.074219 2.1641-1.1836 3.5977-3.3672 3.8203-5.8242 2.6367-28.566 18.973-54.074 43.816-68.418 24.844-14.34 55.105-15.73 81.16-3.7266 26.055 12.004 44.664 35.906 49.906 64.109 0.75 3.7891 4.25 6.3906 8.0938 6.0117 2.6211-0.29297 5.2539-0.4375 7.8906-0.43359 26.828 0.039063 51.602 14.371 65.004 37.613 13.402 23.238 13.402 51.859 0 75.098-13.402 23.238-38.176 37.574-65.004 37.609h-10.781c-4.0859 0-7.3984 3.3125-7.3984 7.4023 0 4.0859 3.3125 7.3984 7.3984 7.3984h10.781c32.113-0.042969 61.77-17.195 77.812-45.012 16.043-27.816 16.043-62.078 0-89.895-16.043-27.816-45.699-44.973-77.812-45.012z"/>
        <path d="m419.72 392.95c-1.3867-1.4102-3.2852-2.207-5.2617-2.207-1.9805-0.003906-3.8789 0.78906-5.2734 2.1953-1.3906 1.4062-2.1602 3.3164-2.1367 5.293 0.023437 1.9805 0.83984 3.8672 2.2695 5.2422l34.066 33.719-34.066 33.715c-1.4297 1.375-2.2461 3.2617-2.2695 5.2422-0.023437 1.9805 0.74609 3.8867 2.1367 5.293 1.3945 1.4102 3.293 2.1992 5.2734 2.1992 1.9766-0.003906 3.875-0.80078 5.2617-2.2109l39.383-38.98h0.003907c1.4023-1.3867 2.1953-3.2812 2.1953-5.2578 0-1.9766-0.79297-3.8711-2.1953-5.2617z"/>
        <path d="m342.75 393.01c-1.3789-1.3945-3.2578-2.1836-5.2188-2.1953-1.9648-0.011718-3.8477 0.75781-5.2461 2.1367l-39.383 38.98c-1.4062 1.3906-2.1953 3.2852-2.1953 5.2617 0 1.9766 0.78906 3.8711 2.1953 5.2578l39.383 38.98c1.3906 1.4102 3.2852 2.207 5.2656 2.2109 1.9805 0 3.8789-0.78906 5.2734-2.1992 1.3906-1.4062 2.1602-3.3125 2.1367-5.293-0.023437-1.9805-0.83984-3.8672-2.2695-5.2422l-34.062-33.715 34.062-33.719c1.3945-1.3789 2.1875-3.2578 2.1992-5.2188 0.007812-1.9648-0.76172-3.8516-2.1406-5.2461z"/>
        <path d="m402.29 369.41c-3.8359-1.3867-8.0781 0.57031-9.5078 4.3945l-42.938 116.75v0.003907c-1.4102 3.8359 0.55078 8.0898 4.3867 9.5078 0.82031 0.29688 1.6836 0.44922 2.5547 0.44922 3.1016 0 5.875-1.9336 6.9453-4.8438l42.953-116.75c1.4023-3.8398-0.55859-8.0898-4.3945-9.5117z"/>
    </g>
    <style>
    @media (prefers-color-scheme:dark){:root{filter:invert(100%)}}
    </style>
</svg>
